<svg xmlns="http://www.w3.org/2000/svg" xmlns:xlink="http://www.w3.org/1999/xlink" width="500" zoomAndPan="magnify" viewBox="0 0 375 374.999991" height="500" preserveAspectRatio="xMidYMid meet" version="1.0"><defs><g/></defs><path fill="#000000" d="M 110.957031 167.125 L 186.785156 167.125 L 186.785156 207.125 L 110.957031 207.125 L 110.957031 167.125 " fill-opacity="1" fill-rule="nonzero"/><g fill="#f9f6f2" fill-opacity="1"><g transform="translate(123.657879, 195.374987)"><g><path d="M 6.125 -14.25 L 6.125 -9.625 L 14.21875 -9.625 L 14.21875 -6.375 L 6.125 -6.375 L 6.125 0 L 2.078125 0 L 2.078125 -17.5 L 15.296875 -17.5 L 15.296875 -14.25 Z M 6.125 -14.25 "/></g></g></g><g fill="#f9f6f2" fill-opacity="1"><g transform="translate(145.030345, 195.374987)"><g><path d="M 2.078125 -17.5 L 6.125 -17.5 L 6.125 0 L 2.078125 0 Z M 2.078125 -17.5 "/></g></g></g><g fill="#f9f6f2" fill-opacity="1"><g transform="translate(158.629047, 195.374987)"><g><path d="M 5.703125 -14.203125 L 0.09375 -14.203125 L 0.09375 -17.5 L 15.34375 -17.5 L 15.34375 -14.203125 L 9.75 -14.203125 L 9.75 0 L 5.703125 0 Z M 5.703125 -14.203125 "/></g></g></g><g fill="#000000" fill-opacity="1"><g transform="translate(195.51424, 195.374987)"><g><path d="M 2.078125 -17.5 L 6.125 -17.5 L 6.125 -3.296875 L 14.90625 -3.296875 L 14.90625 0 L 2.078125 0 Z M 2.078125 -17.5 "/></g></g></g><g fill="#000000" fill-opacity="1"><g transform="translate(216.01184, 195.374987)"><g><path d="M 13.59375 -3.75 L 5.46875 -3.75 L 3.921875 0 L -0.21875 0 L 7.578125 -17.5 L 11.578125 -17.5 L 19.40625 0 L 15.15625 0 Z M 12.328125 -6.828125 L 9.546875 -13.53125 L 6.78125 -6.828125 Z M 12.328125 -6.828125 "/></g></g></g><g fill="#000000" fill-opacity="1"><g transform="translate(240.558805, 195.374987)"><g><path d="M 14.921875 -9.09375 C 15.921875 -8.78125 16.703125 -8.253906 17.265625 -7.515625 C 17.835938 -6.773438 18.125 -5.863281 18.125 -4.78125 C 18.125 -3.238281 17.523438 -2.054688 16.328125 -1.234375 C 15.140625 -0.410156 13.40625 0 11.125 0 L 2.078125 0 L 2.078125 -17.5 L 10.625 -17.5 C 12.757812 -17.5 14.394531 -17.085938 15.53125 -16.265625 C 16.675781 -15.453125 17.25 -14.347656 17.25 -12.953125 C 17.25 -12.097656 17.046875 -11.335938 16.640625 -10.671875 C 16.234375 -10.003906 15.660156 -9.476562 14.921875 -9.09375 Z M 6.09375 -14.453125 L 6.09375 -10.328125 L 10.125 -10.328125 C 11.125 -10.328125 11.878906 -10.5 12.390625 -10.84375 C 12.910156 -11.195312 13.171875 -11.71875 13.171875 -12.40625 C 13.171875 -13.082031 12.910156 -13.59375 12.390625 -13.9375 C 11.878906 -14.28125 11.125 -14.453125 10.125 -14.453125 Z M 10.828125 -3.046875 C 11.890625 -3.046875 12.691406 -3.21875 13.234375 -3.5625 C 13.773438 -3.914062 14.046875 -4.460938 14.046875 -5.203125 C 14.046875 -6.648438 12.972656 -7.375 10.828125 -7.375 L 6.09375 -7.375 L 6.09375 -3.046875 Z M 10.828125 -3.046875 "/></g></g></g></svg>