<svg xmlns="http://www.w3.org/2000/svg" xmlns:xlink="http://www.w3.org/1999/xlink" width="195" zoomAndPan="magnify" viewBox="0 0 146.25 42" height="56" preserveAspectRatio="xMidYMid meet" version="1.0"><defs><g/></defs><g fill="#ffffff" fill-opacity="1"><g transform="translate(80.044802, 27.765434)"><g><path d="M 1.90625 -16.125 L 5.640625 -16.125 L 5.640625 -3.046875 L 13.734375 -3.046875 L 13.734375 0 L 1.90625 0 Z M 1.90625 -16.125 "/></g></g></g><g fill="#ffffff" fill-opacity="1"><g transform="translate(98.925502, 27.765434)"><g><path d="M 12.53125 -3.453125 L 5.046875 -3.453125 L 3.609375 0 L -0.203125 0 L 6.984375 -16.125 L 10.65625 -16.125 L 17.875 0 L 13.953125 0 Z M 11.359375 -6.28125 L 8.796875 -12.453125 L 6.234375 -6.28125 Z M 11.359375 -6.28125 "/></g></g></g><g fill="#ffffff" fill-opacity="1"><g transform="translate(121.536144, 27.765434)"><g><path d="M 13.75 -8.390625 C 14.664062 -8.097656 15.382812 -7.609375 15.90625 -6.921875 C 16.4375 -6.234375 16.703125 -5.394531 16.703125 -4.40625 C 16.703125 -2.988281 16.148438 -1.898438 15.046875 -1.140625 C 13.953125 -0.378906 12.351562 0 10.25 0 L 1.90625 0 L 1.90625 -16.125 L 9.78125 -16.125 C 11.75 -16.125 13.257812 -15.742188 14.3125 -14.984375 C 15.363281 -14.234375 15.890625 -13.21875 15.890625 -11.9375 C 15.890625 -11.144531 15.703125 -10.441406 15.328125 -9.828125 C 14.953125 -9.210938 14.425781 -8.734375 13.75 -8.390625 Z M 5.625 -13.3125 L 5.625 -9.515625 L 9.328125 -9.515625 C 10.242188 -9.515625 10.941406 -9.675781 11.421875 -10 C 11.898438 -10.320312 12.140625 -10.796875 12.140625 -11.421875 C 12.140625 -12.054688 11.898438 -12.53125 11.421875 -12.84375 C 10.941406 -13.15625 10.242188 -13.3125 9.328125 -13.3125 Z M 9.96875 -2.8125 C 10.957031 -2.8125 11.695312 -2.972656 12.1875 -3.296875 C 12.6875 -3.617188 12.9375 -4.117188 12.9375 -4.796875 C 12.9375 -6.128906 11.945312 -6.796875 9.96875 -6.796875 L 5.625 -6.796875 L 5.625 -2.8125 Z M 9.96875 -2.8125 "/></g></g></g><path fill="#ffffff" d="M 2.160156 1.742188 L 72.003906 1.742188 L 72.003906 38.589844 L 2.160156 38.589844 L 2.160156 1.742188 " fill-opacity="1" fill-rule="nonzero"/><g fill="#000000" fill-opacity="1"><g transform="translate(13.856645, 27.765434)"><g><path d="M 5.640625 -13.125 L 5.640625 -8.859375 L 13.109375 -8.859375 L 13.109375 -5.875 L 5.640625 -5.875 L 5.640625 0 L 1.90625 0 L 1.90625 -16.125 L 14.09375 -16.125 L 14.09375 -13.125 Z M 5.640625 -13.125 "/></g></g></g><g fill="#000000" fill-opacity="1"><g transform="translate(33.5432, 27.765434)"><g><path d="M 1.90625 -16.125 L 5.640625 -16.125 L 5.640625 0 L 1.90625 0 Z M 1.90625 -16.125 "/></g></g></g><g fill="#000000" fill-opacity="1"><g transform="translate(46.069203, 27.765434)"><g><path d="M 5.25 -13.078125 L 0.09375 -13.078125 L 0.09375 -16.125 L 14.140625 -16.125 L 14.140625 -13.078125 L 8.984375 -13.078125 L 8.984375 0 L 5.25 0 Z M 5.25 -13.078125 "/></g></g></g></svg>