<svg width="301" height="49" viewBox="0 0 301 49" fill="none" xmlns="http://www.w3.org/2000/svg">
<g filter="url(#filter0_dd_20_319)">
<rect x="10" y="4.79297" width="46.6143" height="30.0304" rx="5.37857" fill="white"/>
<rect x="9.88795" y="4.68092" width="46.8384" height="30.2545" rx="5.49062" stroke="#D6DCE5" stroke-width="0.224107"/>
<path d="M33.0221 14.914L30.8479 25.0775H28.2188L30.3933 14.914H33.0221ZM44.0838 21.4766L45.468 17.6598L46.2645 21.4766H44.0838ZM47.0172 25.0775H49.4491L47.327 14.914H45.0823C44.5779 14.914 44.1523 15.2073 43.9628 15.6596L40.0184 25.0775H42.7794L43.3275 23.5598H46.7007L47.0172 25.0775ZM40.1554 21.759C40.1667 19.0765 36.4458 18.9289 36.4715 17.7306C36.4792 17.3655 36.827 16.9782 37.5865 16.8788C37.9638 16.8296 39.0012 16.7919 40.1792 17.334L40.6405 15.1787C40.0078 14.949 39.1936 14.728 38.1809 14.728C35.5824 14.728 33.7533 16.1097 33.7379 18.088C33.7215 19.551 35.0436 20.3674 36.0398 20.8538C37.0641 21.3521 37.4083 21.6712 37.4038 22.1167C37.397 22.799 36.5867 23.0995 35.8307 23.1114C34.5086 23.1323 33.7414 22.7546 33.1299 22.4696L32.6535 24.6966C33.2676 24.9788 34.4015 25.2239 35.5779 25.2364C38.3395 25.2364 40.1464 23.8718 40.1554 21.759ZM29.2652 14.914L25.0055 25.0775H22.2258L20.1298 16.9663C20.0024 16.4667 19.8917 16.284 19.5047 16.0733C18.8733 15.7307 17.8294 15.4087 16.911 15.2093L16.9737 14.914H21.4474C22.0174 14.914 22.5305 15.2935 22.6598 15.9501L23.767 21.8317L26.5029 14.914H29.2652Z" fill="#1434CB"/>
</g>
<g filter="url(#filter1_dd_20_319)">
<rect x="68.6143" y="4.79297" width="46.6143" height="30.0304" rx="5.37857" fill="white"/>
<rect x="68.5022" y="4.68092" width="46.8384" height="30.2545" rx="5.49062" stroke="#D6DCE5" stroke-width="0.224107"/>
<path d="M95.2699 13.6414H88.4066V25.9749H95.2699V13.6414Z" fill="#FF5F00"/>
<path d="M88.8425 19.8081C88.8414 18.6203 89.1105 17.4478 89.6296 16.3794C90.1486 15.311 90.9039 14.3747 91.8383 13.6414C90.6812 12.7318 89.2915 12.1662 87.8282 12.0092C86.3648 11.8521 84.8867 12.1099 83.563 12.7531C82.2392 13.3964 81.1231 14.3991 80.3423 15.6467C79.5614 16.8942 79.1473 18.3363 79.1473 19.8081C79.1473 21.2799 79.5614 22.722 80.3423 23.9695C81.1231 25.2171 82.2392 26.2198 83.563 26.8631C84.8867 27.5063 86.3648 27.7641 87.8282 27.6071C89.2915 27.45 90.6812 26.8844 91.8383 25.9749C90.9039 25.2415 90.1486 24.3052 89.6296 23.2368C89.1105 22.1684 88.8414 20.9959 88.8425 19.8081Z" fill="#EB001B"/>
<path d="M104.529 19.8081C104.529 21.2799 104.115 22.7219 103.334 23.9695C102.553 25.2171 101.437 26.2198 100.113 26.863C98.7897 27.5063 97.3117 27.7641 95.8484 27.6071C94.385 27.45 92.9954 26.8844 91.8383 25.9749C92.7719 25.2408 93.5266 24.3043 94.0455 23.2361C94.5645 22.1678 94.8341 20.9957 94.8341 19.8081C94.8341 18.6205 94.5645 17.4484 94.0455 16.3801C93.5266 15.3119 92.7719 14.3754 91.8383 13.6414C92.9954 12.7318 94.385 12.1662 95.8484 12.0092C97.3117 11.8521 98.7897 12.1099 100.113 12.7532C101.437 13.3964 102.553 14.3991 103.334 15.6467C104.115 16.8943 104.529 18.3363 104.529 19.8081Z" fill="#F79E1B"/>
<path d="M103.781 24.6686V24.416H103.882V24.3646H103.623V24.416H103.725V24.6686H103.781ZM104.284 24.6686V24.3641H104.204L104.113 24.5735L104.022 24.3641H103.942V24.6686H103.998V24.4389L104.084 24.6369H104.142L104.228 24.4384V24.6686H104.284Z" fill="#F79E1B"/>
</g>
<g filter="url(#filter2_dd_20_319)">
<rect x="127.229" y="4.79297" width="46.6143" height="30.0304" rx="5.37857" fill="white"/>
<rect x="127.116" y="4.68092" width="46.8384" height="30.2545" rx="5.49062" stroke="#D6DCE5" stroke-width="0.224107"/>
<path fill-rule="evenodd" clip-rule="evenodd" d="M137.426 15.439H134.738C134.554 15.439 134.398 15.5726 134.369 15.7541L133.282 22.6448C133.261 22.7808 133.366 22.9034 133.504 22.9034H134.787C134.971 22.9034 135.127 22.7697 135.156 22.5879L135.449 20.7294C135.477 20.5474 135.634 20.4139 135.818 20.4139H136.668C138.439 20.4139 139.46 19.5573 139.727 17.8599C139.848 17.1173 139.733 16.5338 139.385 16.125C139.003 15.6764 138.325 15.439 137.426 15.439ZM137.736 17.9557C137.589 18.92 136.852 18.92 136.14 18.92H135.734L136.018 17.1191C136.035 17.0104 136.13 16.9302 136.24 16.9302H136.426C136.911 16.9302 137.369 16.9302 137.605 17.2067C137.746 17.3718 137.79 17.617 137.736 17.9557ZM145.459 17.9248H144.172C144.063 17.9248 143.968 18.005 143.951 18.1139L143.894 18.4738L143.804 18.3434C143.525 17.939 142.904 17.8039 142.284 17.8039C140.862 17.8039 139.647 18.8809 139.411 20.3917C139.288 21.1452 139.462 21.8658 139.89 22.3684C140.282 22.8305 140.843 23.023 141.511 23.023C142.657 23.023 143.292 22.2862 143.292 22.2862L143.235 22.6439C143.213 22.7806 143.319 22.9032 143.456 22.9032H144.615C144.8 22.9032 144.955 22.7696 144.984 22.5877L145.68 18.1834C145.702 18.0479 145.597 17.9248 145.459 17.9248ZM143.665 20.4294C143.541 21.1645 142.958 21.658 142.213 21.658C141.84 21.658 141.541 21.5382 141.349 21.3111C141.159 21.0856 141.087 20.7645 141.147 20.407C141.263 19.678 141.857 19.1685 142.589 19.1685C142.955 19.1685 143.252 19.2898 143.448 19.5189C143.644 19.7504 143.721 20.0733 143.665 20.4294ZM151.02 17.9246H152.314C152.495 17.9246 152.6 18.1277 152.497 18.2763L148.196 24.4844C148.126 24.585 148.012 24.6448 147.889 24.6448H146.597C146.415 24.6448 146.309 24.4401 146.415 24.2911L147.754 22.4008L146.329 18.2208C146.28 18.0755 146.387 17.9246 146.542 17.9246H147.813C147.978 17.9246 148.124 18.033 148.171 18.191L148.927 20.7156L150.711 18.0885C150.781 17.9859 150.897 17.9246 151.02 17.9246Z" fill="#253B80"/>
<path fill-rule="evenodd" clip-rule="evenodd" d="M165.043 22.6442L166.146 15.6275C166.163 15.5185 166.257 15.4384 166.367 15.438H167.608C167.745 15.438 167.851 15.5609 167.829 15.6969L166.741 22.5873C166.713 22.7691 166.557 22.9028 166.372 22.9028H165.264C165.126 22.9028 165.021 22.7802 165.043 22.6442ZM156.596 15.4383H153.908C153.724 15.4383 153.568 15.572 153.539 15.7535L152.452 22.6442C152.431 22.7802 152.536 22.9028 152.673 22.9028H154.052C154.181 22.9028 154.29 22.8093 154.31 22.682L154.619 20.7288C154.647 20.5468 154.804 20.4133 154.987 20.4133H155.838C157.608 20.4133 158.63 19.5567 158.897 17.8593C159.018 17.1167 158.902 16.5332 158.554 16.1244C158.172 15.6758 157.495 15.4383 156.596 15.4383ZM156.906 17.9551C156.759 18.9194 156.022 18.9194 155.31 18.9194H154.904L155.189 17.1185C155.206 17.0097 155.3 16.9296 155.41 16.9296H155.596C156.081 16.9296 156.539 16.9296 156.776 17.2061C156.917 17.3712 156.96 17.6163 156.906 17.9551ZM164.629 17.9242H163.343C163.232 17.9242 163.138 18.0044 163.122 18.1133L163.065 18.4731L162.974 18.3428C162.696 17.9384 162.075 17.8033 161.455 17.8033C160.032 17.8033 158.818 18.8803 158.582 20.3911C158.459 21.1446 158.633 21.8652 159.061 22.3678C159.454 22.8299 160.014 23.0224 160.682 23.0224C161.828 23.0224 162.463 22.2856 162.463 22.2856L162.406 22.6433C162.384 22.78 162.489 22.9026 162.627 22.9026H163.786C163.97 22.9026 164.126 22.7689 164.155 22.5871L164.851 18.1828C164.872 18.0473 164.767 17.9242 164.629 17.9242ZM162.835 20.4288C162.711 21.1639 162.127 21.6574 161.383 21.6574C161.01 21.6574 160.71 21.5376 160.519 21.3105C160.328 21.085 160.257 20.7639 160.317 20.4064C160.433 19.6774 161.026 19.1679 161.759 19.1679C162.124 19.1679 162.421 19.2892 162.617 19.5183C162.814 19.7498 162.892 20.0727 162.835 20.4288Z" fill="#179BD7"/>
</g>
<g filter="url(#filter3_dd_20_319)">
<rect x="185.843" y="4.79297" width="46.6143" height="30.0304" rx="5.37857" fill="white"/>
<rect x="185.731" y="4.68092" width="46.8384" height="30.2545" rx="5.49062" stroke="#D6DCE5" stroke-width="0.224107"/>
<path d="M200.92 15.8747C201.231 15.4857 201.442 14.9634 201.386 14.4297C200.931 14.4523 200.375 14.73 200.054 15.1193C199.765 15.4527 199.509 15.9968 199.576 16.5082C200.087 16.5525 200.598 16.2527 200.92 15.8747Z" fill="#000008"/>
<path d="M201.38 16.608C200.638 16.5638 200.007 17.0292 199.653 17.0292C199.298 17.0292 198.756 16.6303 198.169 16.6411C197.405 16.6523 196.696 17.0843 196.308 17.7713C195.51 19.1458 196.097 21.1846 196.873 22.304C197.25 22.8578 197.703 23.4676 198.301 23.4457C198.866 23.4235 199.088 23.0798 199.775 23.0798C200.461 23.0798 200.661 23.4457 201.259 23.4346C201.879 23.4235 202.267 22.8805 202.643 22.3262C203.075 21.6948 203.252 21.0853 203.263 21.0518C203.252 21.0407 202.067 20.5861 202.056 19.2231C202.045 18.0818 202.987 17.539 203.031 17.5053C202.499 16.719 201.668 16.6303 201.38 16.608Z" fill="#000008"/>
<path d="M207.843 15.0635C209.456 15.0635 210.579 16.1754 210.579 17.7942C210.579 19.4188 209.432 20.5365 207.802 20.5365H206.016V23.3767H204.726V15.0635L207.843 15.0635ZM206.016 19.4534H207.497C208.62 19.4534 209.26 18.8486 209.26 17.8C209.26 16.7516 208.62 16.1524 207.503 16.1524H206.016V19.4534Z" fill="#000008"/>
<path d="M210.916 21.6542C210.916 20.5941 211.728 19.9431 213.169 19.8624L214.828 19.7645V19.2979C214.828 18.6238 214.373 18.2206 213.612 18.2206C212.892 18.2206 212.443 18.5662 212.333 19.1078H211.158C211.227 18.0131 212.16 17.2066 213.658 17.2066C215.127 17.2066 216.066 17.9843 216.066 19.1999V23.3767H214.874V22.38H214.845C214.494 23.0541 213.727 23.4804 212.932 23.4804C211.746 23.4804 210.916 22.7429 210.916 21.6542ZM214.828 21.1069V20.6287L213.336 20.7208C212.592 20.7727 212.172 21.1011 212.172 21.6196C212.172 22.1496 212.61 22.4953 213.278 22.4953C214.148 22.4953 214.828 21.8961 214.828 21.1069Z" fill="#000008"/>
<path d="M217.192 25.6062V24.598C217.284 24.621 217.492 24.621 217.595 24.621C218.171 24.621 218.483 24.3791 218.673 23.7569C218.673 23.7454 218.782 23.3882 218.782 23.3825L216.593 17.316H217.941L219.473 22.2476H219.496L221.029 17.316H222.342L220.072 23.6935C219.554 25.1626 218.955 25.635 217.699 25.635C217.595 25.635 217.284 25.6235 217.192 25.6062Z" fill="#000008"/>
</g>
<g filter="url(#filter4_dd_20_319)">
<rect x="244.457" y="4.79297" width="46.6143" height="30.0304" rx="5.37857" fill="white"/>
<rect x="244.345" y="4.68092" width="46.8384" height="30.2545" rx="5.49062" stroke="#D6DCE5" stroke-width="0.224107"/>
<path d="M266.751 23.4073H265.703V15.249H268.482C269.186 15.249 269.787 15.4838 270.279 15.9534C270.781 16.4231 271.032 16.9964 271.032 17.6736C271.032 18.3671 270.781 18.9404 270.279 19.4046C269.793 19.8688 269.192 20.0981 268.482 20.0981H266.751V23.4073ZM266.751 16.2538V19.0988H268.504C268.919 19.0988 269.268 18.9568 269.541 18.6783C269.82 18.3998 269.962 18.0613 269.962 17.679C269.962 17.3022 269.82 16.9691 269.541 16.6906C269.268 16.4012 268.924 16.2592 268.504 16.2592H266.751V16.2538Z" fill="#3C4043"/>
<path d="M273.773 17.6408C274.549 17.6408 275.16 17.8483 275.608 18.2633C276.056 18.6783 276.28 19.2462 276.28 19.967V23.4073H275.28V22.6319H275.237C274.805 23.2708 274.226 23.5875 273.506 23.5875C272.889 23.5875 272.375 23.4073 271.96 23.0414C271.545 22.6755 271.338 22.2223 271.338 21.6762C271.338 21.0974 271.556 20.6387 271.993 20.3001C272.43 19.9561 273.014 19.7868 273.74 19.7868C274.363 19.7868 274.876 19.9015 275.275 20.1309V19.8906C275.275 19.5247 275.133 19.2189 274.844 18.9623C274.554 18.7056 274.216 18.58 273.828 18.58C273.244 18.58 272.779 18.8258 272.441 19.3227L271.518 18.7439C272.026 18.0067 272.779 17.6408 273.773 17.6408ZM272.419 21.6926C272.419 21.9657 272.534 22.195 272.768 22.3752C272.998 22.5554 273.271 22.6482 273.582 22.6482C274.024 22.6482 274.418 22.4844 274.762 22.1568C275.106 21.8291 275.28 21.4469 275.28 21.0046C274.953 20.7479 274.5 20.6169 273.915 20.6169C273.489 20.6169 273.134 20.7206 272.85 20.9227C272.561 21.1356 272.419 21.3923 272.419 21.6926Z" fill="#3C4043"/>
<path d="M281.981 17.8211L278.486 25.8592H277.405L278.704 23.0469L276.4 17.8211H277.541L279.201 21.8292H279.223L280.839 17.8211H281.981Z" fill="#3C4043"/>
<path d="M262.581 19.4374C262.581 19.0955 262.55 18.7684 262.493 18.4539H258.098V20.2559L260.63 20.2565C260.527 20.856 260.196 21.3672 259.69 21.7079V22.877H261.197C262.077 22.0629 262.581 20.8593 262.581 19.4374Z" fill="#4285F4"/>
<path d="M259.691 21.708C259.271 21.9908 258.731 22.1563 258.1 22.1563C256.879 22.1563 255.844 21.3339 255.473 20.2254H253.919V21.4311C254.689 22.959 256.271 24.0075 258.1 24.0075C259.363 24.0075 260.425 23.5919 261.197 22.8766L259.691 21.708Z" fill="#34A853"/>
<path d="M255.327 19.3309C255.327 19.0196 255.378 18.7187 255.473 18.4359V17.2301H253.919C253.6 17.8619 253.421 18.5751 253.421 19.3309C253.421 20.0866 253.601 20.7998 253.919 21.4316L255.473 20.2259C255.378 19.943 255.327 19.6421 255.327 19.3309Z" fill="#FABB05"/>
<path d="M258.1 16.505C258.789 16.505 259.407 16.7425 259.894 17.2067L261.23 15.8726C260.419 15.1174 259.362 14.6538 258.1 14.6538C256.272 14.6538 254.689 15.7022 253.919 17.2301L255.473 18.4359C255.844 17.3273 256.879 16.505 258.1 16.505Z" fill="#E94235"/>
</g>
<defs>
<filter id="filter0_dd_20_319" x="0.811593" y="0.0867047" width="64.9911" height="48.4071" filterUnits="userSpaceOnUse" color-interpolation-filters="sRGB">
<feFlood flood-opacity="0" result="BackgroundImageFix"/>
<feColorMatrix in="SourceAlpha" type="matrix" values="0 0 0 0 0 0 0 0 0 0 0 0 0 0 0 0 0 0 127 0" result="hardAlpha"/>
<feOffset dy="0.448214"/>
<feGaussianBlur stdDeviation="2.24107"/>
<feColorMatrix type="matrix" values="0 0 0 0 0.717647 0 0 0 0 0.717647 0 0 0 0 0.717647 0 0 0 0.08 0"/>
<feBlend mode="normal" in2="BackgroundImageFix" result="effect1_dropShadow_20_319"/>
<feColorMatrix in="SourceAlpha" type="matrix" values="0 0 0 0 0 0 0 0 0 0 0 0 0 0 0 0 0 0 127 0" result="hardAlpha"/>
<feOffset dy="4.48214"/>
<feGaussianBlur stdDeviation="4.48214"/>
<feColorMatrix type="matrix" values="0 0 0 0 0.717647 0 0 0 0 0.717647 0 0 0 0 0.717647 0 0 0 0.08 0"/>
<feBlend mode="normal" in2="effect1_dropShadow_20_319" result="effect2_dropShadow_20_319"/>
<feBlend mode="normal" in="SourceGraphic" in2="effect2_dropShadow_20_319" result="shape"/>
</filter>
<filter id="filter1_dd_20_319" x="59.4259" y="0.0867047" width="64.9911" height="48.4071" filterUnits="userSpaceOnUse" color-interpolation-filters="sRGB">
<feFlood flood-opacity="0" result="BackgroundImageFix"/>
<feColorMatrix in="SourceAlpha" type="matrix" values="0 0 0 0 0 0 0 0 0 0 0 0 0 0 0 0 0 0 127 0" result="hardAlpha"/>
<feOffset dy="0.448214"/>
<feGaussianBlur stdDeviation="2.24107"/>
<feColorMatrix type="matrix" values="0 0 0 0 0.717647 0 0 0 0 0.717647 0 0 0 0 0.717647 0 0 0 0.08 0"/>
<feBlend mode="normal" in2="BackgroundImageFix" result="effect1_dropShadow_20_319"/>
<feColorMatrix in="SourceAlpha" type="matrix" values="0 0 0 0 0 0 0 0 0 0 0 0 0 0 0 0 0 0 127 0" result="hardAlpha"/>
<feOffset dy="4.48214"/>
<feGaussianBlur stdDeviation="4.48214"/>
<feColorMatrix type="matrix" values="0 0 0 0 0.717647 0 0 0 0 0.717647 0 0 0 0 0.717647 0 0 0 0.08 0"/>
<feBlend mode="normal" in2="effect1_dropShadow_20_319" result="effect2_dropShadow_20_319"/>
<feBlend mode="normal" in="SourceGraphic" in2="effect2_dropShadow_20_319" result="shape"/>
</filter>
<filter id="filter2_dd_20_319" x="118.04" y="0.0867047" width="64.9911" height="48.4071" filterUnits="userSpaceOnUse" color-interpolation-filters="sRGB">
<feFlood flood-opacity="0" result="BackgroundImageFix"/>
<feColorMatrix in="SourceAlpha" type="matrix" values="0 0 0 0 0 0 0 0 0 0 0 0 0 0 0 0 0 0 127 0" result="hardAlpha"/>
<feOffset dy="0.448214"/>
<feGaussianBlur stdDeviation="2.24107"/>
<feColorMatrix type="matrix" values="0 0 0 0 0.717647 0 0 0 0 0.717647 0 0 0 0 0.717647 0 0 0 0.08 0"/>
<feBlend mode="normal" in2="BackgroundImageFix" result="effect1_dropShadow_20_319"/>
<feColorMatrix in="SourceAlpha" type="matrix" values="0 0 0 0 0 0 0 0 0 0 0 0 0 0 0 0 0 0 127 0" result="hardAlpha"/>
<feOffset dy="4.48214"/>
<feGaussianBlur stdDeviation="4.48214"/>
<feColorMatrix type="matrix" values="0 0 0 0 0.717647 0 0 0 0 0.717647 0 0 0 0 0.717647 0 0 0 0.08 0"/>
<feBlend mode="normal" in2="effect1_dropShadow_20_319" result="effect2_dropShadow_20_319"/>
<feBlend mode="normal" in="SourceGraphic" in2="effect2_dropShadow_20_319" result="shape"/>
</filter>
<filter id="filter3_dd_20_319" x="176.654" y="0.0867047" width="64.9911" height="48.4071" filterUnits="userSpaceOnUse" color-interpolation-filters="sRGB">
<feFlood flood-opacity="0" result="BackgroundImageFix"/>
<feColorMatrix in="SourceAlpha" type="matrix" values="0 0 0 0 0 0 0 0 0 0 0 0 0 0 0 0 0 0 127 0" result="hardAlpha"/>
<feOffset dy="0.448214"/>
<feGaussianBlur stdDeviation="2.24107"/>
<feColorMatrix type="matrix" values="0 0 0 0 0.717647 0 0 0 0 0.717647 0 0 0 0 0.717647 0 0 0 0.08 0"/>
<feBlend mode="normal" in2="BackgroundImageFix" result="effect1_dropShadow_20_319"/>
<feColorMatrix in="SourceAlpha" type="matrix" values="0 0 0 0 0 0 0 0 0 0 0 0 0 0 0 0 0 0 127 0" result="hardAlpha"/>
<feOffset dy="4.48214"/>
<feGaussianBlur stdDeviation="4.48214"/>
<feColorMatrix type="matrix" values="0 0 0 0 0.717647 0 0 0 0 0.717647 0 0 0 0 0.717647 0 0 0 0.08 0"/>
<feBlend mode="normal" in2="effect1_dropShadow_20_319" result="effect2_dropShadow_20_319"/>
<feBlend mode="normal" in="SourceGraphic" in2="effect2_dropShadow_20_319" result="shape"/>
</filter>
<filter id="filter4_dd_20_319" x="235.269" y="0.0867047" width="64.9911" height="48.4071" filterUnits="userSpaceOnUse" color-interpolation-filters="sRGB">
<feFlood flood-opacity="0" result="BackgroundImageFix"/>
<feColorMatrix in="SourceAlpha" type="matrix" values="0 0 0 0 0 0 0 0 0 0 0 0 0 0 0 0 0 0 127 0" result="hardAlpha"/>
<feOffset dy="0.448214"/>
<feGaussianBlur stdDeviation="2.24107"/>
<feColorMatrix type="matrix" values="0 0 0 0 0.717647 0 0 0 0 0.717647 0 0 0 0 0.717647 0 0 0 0.08 0"/>
<feBlend mode="normal" in2="BackgroundImageFix" result="effect1_dropShadow_20_319"/>
<feColorMatrix in="SourceAlpha" type="matrix" values="0 0 0 0 0 0 0 0 0 0 0 0 0 0 0 0 0 0 127 0" result="hardAlpha"/>
<feOffset dy="4.48214"/>
<feGaussianBlur stdDeviation="4.48214"/>
<feColorMatrix type="matrix" values="0 0 0 0 0.717647 0 0 0 0 0.717647 0 0 0 0 0.717647 0 0 0 0.08 0"/>
<feBlend mode="normal" in2="effect1_dropShadow_20_319" result="effect2_dropShadow_20_319"/>
<feBlend mode="normal" in="SourceGraphic" in2="effect2_dropShadow_20_319" result="shape"/>
</filter>
</defs>
</svg>
